P2
# Created by GIMP version 2.10.18 PNM plug-in
33 73
255
107
124
212
240
154
89
99
97
79
32
53
117
155
146
90
98
89
43
45
66
53
130
220
146
158
189
163
166
215
115
105
159
118
63
48
112
127
75
79
94
75
90
137
124
29
14
59
118
145
168
151
114
132
121
169
150
69
140
204
139
97
199
191
126
119
167
76
78
74
62
45
59
31
89
211
224
161
75
51
54
62
29
42
56
73
44
25
93
68
129
206
203
165
108
173
210
183
95
94
26
114
142
76
65
50
58
225
233
114
54
81
96
76
40
11
6
3
18
7
10
130
98
148
207
205
194
99
98
210
214
167
105
93
156
149
103
44
38
146
206
117
89
91
112
78
35
11
9
17
6
2
2
39
167
195
186
208
204
211
132
67
164
211
208
167
142
146
146
145
60
20
56
61
84
107
105
70
41
14
24
19
17
14
3
8
71
186
213
206
197
200
209
187
93
92
196
214
198
142
118
147
155
90
38
36
83
105
80
49
21
10
8
13
16
10
16
4
29
148
200
200
201
200
200
205
199
140
67
180
220
202
124
69
84
161
134
41
49
110
81
39
23
12
4
2
3
6
4
18
84
160
196
201
200
201
200
199
202
203
170
42
131
216
196
112
46
36
109
170
50
28
62
31
14
53
104
108
108
117
109
80
14
96
196
212
204
202
202
200
199
200
207
200
48
51
154
200
115
70
74
45
109
37
18
28
18
12
123
160
97
86
135
144
99
74
63
152
212
205
203
202
200
201
198
203
203
86
14
60
183
134
59
47
32
6
63
70
44
13
12
128
79
55
89
62
48
110
165
130
123
202
208
206
202
201
204
200
210
205
84
12
18
105
74
15
7
28
21
119
180
93
8
11
49
22
99
155
125
69
104
184
113
87
205
209
207
202
201
202
207
212
183
43
9
26
19
24
29
64
36
35
90
208
114
62
48
13
18
67
118
104
122
138
91
45
111
229
212
209
203
201
200
214
195
124
4
5
4
13
150
124
144
65
36
80
146
143
125
156
53
122
100
90
110
137
163
167
94
106
206
212
208
203
201
200
215
171
64
77
111
27
4
160
105
94
64
48
41
34
94
64
128
126
111
175
155
180
192
153
98
66
44
144
218
211
203
204
200
205
163
53
111
173
104
40
59
68
83
83
74
54
51
79
43
48
132
61
148
183
134
155
136
141
148
55
66
163
188
208
202
202
203
105
44
133
167
169
103
47
82
95
100
94
100
98
102
83
63
89
51
102
188
173
147
165
215
189
98
72
88
119
176
210
208
153
45
91
155
166
143
49
65
90
97
100
98
94
85
79
93
98
78
69
56
160
197
138
109
175
173
86
80
107
146
164
207
206
102
64
165
154
141
61
40
55
83
98
110
95
108
99
68
87
115
119
98
63
69
201
190
184
192
118
87
93
95
173
176
100
31
24
104
156
123
43
71
196
68
71
93
90
91
103
97
72
86
119
124
108
81
65
122
179
150
117
78
87
72
73
120
95
76
69
96
116
97
44
78
195
232
73
43
73
71
65
73
57
62
112
106
105
88
70
117
140
105
30
32
50
46
38
36
106
133
149
135
114
72
46
103
199
236
191
73
92
77
97
111
104
58
38
58
71
61
44
29
92
174
142
50
22
27
28
54
51
50
53
68
81
50
73
151
211
233
230
158
117
110
50
67
90
134
121
30
30
40
34
27
42
57
85
67
54
55
94
86
63
93
66
20
30
111
185
205
227
220
232
228
143
130
105
116
154
96
26
32
35
98
120
136
87
37
42
72
74
104
154
209
189
107
55
28
85
66
91
190
217
217
228
213
222
108
118
100
150
163
60
69
163
119
103
110
135
98
50
46
141
174
158
173
173
146
93
78
25
59
98
73
103
178
242
218
228
195
64
128
94
128
87
22
92
180
153
92
110
98
79
87
72
130
169
129
94
91
94
69
69
63
61
101
81
85
92
207
225
236
131
61
104
75
126
52
53
106
106
90
99
106
37
41
73
79
75
79
89
112
124
137
103
35
113
95
85
85
107
69
122
149
142
79
137
66
85
136
26
66
125
116
90
99
88
38
50
50
53
54
101
175
186
192
202
126
30
92
93
56
93
143
151
100
31
7
54
159
82
101
83
45
168
178
151
137
113
65
104
154
78
42
40
88
165
152
125
105
67
75
58
59
66
159
214
217
143
82
107
57
55
142
55
61
175
242
175
98
143
147
55
138
221
145
59
51
49
58
78
88
82
98
108
36
74
71
124
176
151
113
112
126
104
155
161
47
81
155
175
96
55
138
104
70
105
127
124
61
67
54
67
102
153
88
112
83
57
94
73
94
109
99
98
102
121
201
209
139
57
87
102
93
41
74
88
44
80
91
100
105
87
60
62
87
120
135
118
92
94
117
74
63
66
105
123
142
160
139
124
103
110
102
106
94
71
27
46
80
136
153
143
143
153
180
120
44
57
53
55
107
128
174
196
70
39
27
107
179
217
235
152
87
132
121
214
201
146
34
18
34
131
200
198
196
196
200
197
182
105
31
53
66
72
85
130
138
47
22
26
76
206
183
160
112
114
217
141
182
190
111
39
82
63
112
121
110
125
129
119
110
120
104
42
25
84
84
22
40
48
21
24
55
25
104
110
114
110
101
184
103
101
85
81
154
116
68
105
105
101
102
106
109
119
108
79
55
16
46
107
39
13
13
20
54
77
13
44
84
112
119
115
143
99
73
36
102
200
101
97
179
163
161
170
184
194
189
120
82
147
84
29
39
24
5
7
60
81
50
72
54
72
132
172
194
117
90
39
21
64
208
92
86
189
186
186
200
198
182
138
41
104
153
114
104
45
24
4
2
38
34
52
137
67
61
222
224
196
125
59
47
106
67
162
153
58
86
109
106
76
63
59
20
27
61
50
88
119
77
27
38
104
17
1
20
67
32
24
141
139
133
113
177
54
98
83
100
185
71
80
172
116
35
47
81
89
75
58
56
61
92
108
85
55
42
2
2
58
40
102
37
55
114
129
101
151
102
119
41
38
76
28
26
161
98
39
100
118
100
81
52
67
43
49
159
161
35
78
110
53
62
26
66
44
44
88
103
119
76
121
68
20
17
9
45
20
38
38
42
116
124
106
90
75
78
66
48
98
108
58
108
126
44
11
34
64
57
47
42
72
201
55
106
33
8
47
120
105
31
89
69
24
90
114
136
126
119
122
124
75
73
121
103
81
20
22
60
78
63
65
62
36
54
194
157
189
121
27
66
100
98
28
140
137
45
35
65
84
106
119
114
95
31
61
113
116
178
86
58
99
76
108
76
42
12
35
170
224
218
105
51
157
88
105
59
53
134
162
142
77
36
44
47
46
21
26
61
46
153
202
129
107
64
75
127
52
43
39
43
95
193
143
22
90
239
117
69
48
88
85
69
96
100
102
104
77
37
79
154
164
104
92
64
79
120
75
93
89
28
82
71
47
60
111
102
70
79
219
90
32
116
135
41
5
5
23
46
89
76
27
95
148
136
120
61
88
103
94
81
94
99
27
55
59
34
45
105
138
119
56
172
97
36
56
23
28
19
3
5
37
93
42
6
11
28
43
73
158
180
90
28
46
89
85
55
24
25
46
34
109
142
88
18
61
67
21
3
42
120
80
5
3
76
133
42
63
59
58
78
28
78
47
37
26
4
43
28
15
33
79
139
51
142
109
129
107
8
32
35
2
109
155
81
10
37
96
86
58
85
58
101
93
44
33
38
71
47
0
42
76
82
107
169
226
133
156
169
172
117
18
101
48
2
85
129
39
69
74
90
57
46
75
67
111
122
68
63
89
89
67
35
99
125
110
171
230
250
214
12
29
24
6
73
171
77
2
0
10
17
134
79
55
13
25
69
64
123
125
67
56
97
109
56
34
121
128
186
230
238
247
252
108
107
113
55
117
186
154
105
51
15
21
82
64
88
17
41
93
117
129
103
88
62
106
126
62
25
167
220
247
240
245
245
176
252
253
192
72
108
177
190
188
192
153
89
13
27
101
24
74
139
146
130
78
77
79
115
149
90
70
175
218
237
249
248
244
75
252
242
124
42
43
104
122
132
173
196
128
28
68
85
48
130
148
140
85
14
40
84
134
146
78
101
175
197
245
242
246
250
156
246
221
124
106
52
43
76
76
161
190
113
90
80
33
82
144
158
132
14
1
23
90
147
157
83
115
215
234
250
246
239
250
217
235
171
114
177
116
83
112
40
129
162
127
145
79
14
110
160
153
75
34
115
46
86
152
158
76
115
229
241
237
245
246
242
137
224
130
124
175
120
108
105
56
83
79
142
183
134
60
123
164
137
40
107
222
60
75
146
152
63
129
237
247
244
252
246
241
64
212
128
153
182
151
81
92
159
143
89
151
190
155
62
128
150
136
59
133
236
56
79
139
124
66
167
219
226
234
240
252
220
65
218
146
156
190
174
142
147
192
152
106
169
194
136
66
130
150
136
39
115
235
72
83
133
116
89
162
88
57
95
184
243
237
199
227
157
105
168
179
173
178
196
112
80
161
188
115
71
135
154
139
47
118
245
98
94
142
116
111
156
23
45
25
70
208
242
246
236
208
117
106
169
188
198
200
95
98
180
191
96
73
136
152
138
46
110
235
92
83
143
110
99
145
46
114
83
88
213
243
241
242
238
198
121
83
139
180
171
86
97
178
178
88
78
134
146
136
69
108
225
87
86
151
114
86
120
41
83
89
140
234
246
247
244
234
245
229
158
67
62
56
27
36
80
111
73
88
136
145
138
89
87
207
102
84
146
128
41
11
16
25
59
187
243
242
252
244
233
245
229
164
106
104
141
166
134
63
3
52
106
142
148
147
110
71
164
123
70
98
97
82
89
159
133
90
197
250
241
240
245
247
239
134
26
55
105
199
247
252
191
39
37
113
136
137
139
82
33
92
115
91
123
172
213
242
249
200
94
159
253
244
209
251
249
203
40
73
148
89
144
236
249
242
180
67
86
131
114
75
83
82
102
196
218
236
250
230
205
167
120
62
121
251
253
145
245
251
165
25
143
169
90
165
230
229
221
169
92
76
72
87
145
203
215
221
247
245
222
182
151
125
111
98
54
155
252
223
84
244
220
108
4
78
110
87
131
157
125
115
115
158
178
161
174
239
235
224
201
202
174
131
108
124
147
160
174
112
163
244
167
88
179
112
66
55
34
67
83
61
121
146
168
210
245
250
250
229
201
177
154
153
169
144
137
160
200
222
236
227
138
132
230
129
115
85
143
199
218
202
144
57
107
210
241
245
245
244
215
201
181
169
168
177
191
200
220
226
236
244
236
224
176
91
69
171
114
130
181
228
244
250
254
179
73
130
202
189
202
202
189
172
180
184
182
190
222
242
241
250
249
225
192
152
142
133
100
68
127
105
100
236
234
209
173
184
141
66
129
172
177
177
170
163
164
193
217
221
231
238
222
198
190
190
168
135
126
154
162
112
124
128
82
75
